<?xml version="1.0" encoding="utf-8"?>
<!-- Generator: Adobe Illustrator 15.1.0, SVG Export Plug-In . SVG Version: 6.00 Build 0)  -->
<!DOCTYPE svg PUBLIC "-//W3C//DTD SVG 1.1//EN" "http://www.w3.org/Graphics/SVG/1.1/DTD/svg11.dtd">
<svg version="1.1" id="Layer_1" xmlns="http://www.w3.org/2000/svg" xmlns:xlink="http://www.w3.org/1999/xlink" x="0px" y="0px"
	 width="259.512px" height="12.258px" viewBox="0 0 259.512 12.258" enable-background="new 0 0 259.512 12.258"
	 xml:space="preserve">
<g>
	<path fill="#FFFFFF" d="M0,0.204h2.811l3.113,5.011l3.116-5.011h2.81v11.849H9.26V4.318l-3.336,5.06H5.857L2.556,4.367v7.686H0
		V0.204z"/>
	<path fill="#FFFFFF" d="M14.811,0.204h2.606v11.849h-2.606V0.204z"/>
	<path fill="#FFFFFF" d="M19.854,6.162V6.128C19.854,2.76,22.394,0,26.032,0c2.238,0,3.575,0.745,4.674,1.829l-1.66,1.912
		c-0.913-0.827-1.844-1.336-3.031-1.336c-1.998,0-3.434,1.659-3.434,3.69v0.034c0,2.032,1.403,3.726,3.434,3.726
		c1.354,0,2.185-0.54,3.116-1.389l1.659,1.676c-1.218,1.304-2.572,2.117-4.858,2.117C22.445,12.258,19.854,9.566,19.854,6.162z"/>
	<path fill="#FFFFFF" d="M32.871,0.204h2.607v4.689h4.809V0.204h2.607v11.849h-2.607V7.299h-4.809v4.754h-2.607V0.204z"/>
	<path fill="#FFFFFF" d="M45.852,0.204h2.608v11.849h-2.608V0.204z"/>
	<path fill="#FFFFFF" d="M50.895,6.162V6.128C50.895,2.76,53.52,0,57.11,0c2.132,0,3.418,0.576,4.656,1.627l-1.643,1.98
		c-0.916-0.763-1.727-1.204-3.099-1.204c-1.895,0-3.404,1.676-3.404,3.69v0.034c0,2.169,1.491,3.76,3.589,3.76
		c0.95,0,1.795-0.236,2.456-0.711V7.482h-2.624v-2.25h5.146v5.145c-1.219,1.033-2.896,1.881-5.062,1.881
		C53.437,12.258,50.895,9.668,50.895,6.162z"/>
	<path fill="#FFFFFF" d="M68.754,0.119h2.404l5.08,11.934h-2.727l-1.084-2.657h-5.011l-1.084,2.657h-2.658L68.754,0.119z
		 M71.498,7.094l-1.575-3.842l-1.576,3.842H71.498z"/>
	<path fill="#FFFFFF" d="M78.062,0.204h2.405L86.02,7.5V0.204h2.574v11.849h-2.219l-5.738-7.531v7.531h-2.575V0.204z"/>
	<path fill="#FFFFFF" d="M95.7,10.328l1.54-1.846c1.067,0.88,2.186,1.439,3.54,1.439c1.064,0,1.708-0.424,1.708-1.118V8.77
		c0-0.66-0.405-0.999-2.386-1.506c-2.387-0.609-3.93-1.27-3.93-3.622V3.607c0-2.151,1.727-3.575,4.149-3.575
		c1.728,0,3.199,0.543,4.402,1.509l-1.354,1.963c-1.05-0.729-2.083-1.168-3.082-1.168c-0.999,0-1.522,0.456-1.522,1.032v0.033
		c0,0.779,0.507,1.033,2.555,1.56c2.404,0.626,3.759,1.487,3.759,3.554v0.035c0,2.354-1.795,3.673-4.351,3.673
		C98.933,12.224,97.122,11.598,95.7,10.328z"/>
	<path fill="#FFFFFF" d="M109.851,2.608h-3.608V0.204h9.819v2.404h-3.604v9.445h-2.607V2.608z"/>
	<path fill="#FFFFFF" d="M120.599,0.119h2.402l5.079,11.934h-2.726l-1.082-2.657h-5.011l-1.085,2.657h-2.657L120.599,0.119z
		 M123.339,7.094l-1.573-3.842l-1.573,3.842H123.339z"/>
	<path fill="#FFFFFF" d="M131.144,2.608h-3.605V0.204h9.818v2.404h-3.607v9.445h-2.605V2.608z"/>
	<path fill="#FFFFFF" d="M139.353,0.204h8.938v2.319h-6.349v2.405h5.586v2.319h-5.586v2.487h6.434v2.318h-9.023V0.204z"/>
	<path fill="#FFFFFF" d="M155.921,7.127V0.204h0.882v6.838c0,2.794,1.507,4.402,4.013,4.402c2.403,0,3.944-1.454,3.944-4.317V0.204
		h0.88v6.821c0,3.402-1.981,5.216-4.858,5.216C157.936,12.241,155.921,10.445,155.921,7.127z"/>
	<path fill="#FFFFFF" d="M168.971,0.204h0.831l8.178,10.31V0.204h0.846v11.849h-0.66l-8.347-10.529v10.529h-0.848V0.204z"/>
	<path fill="#FFFFFF" d="M182.464,0.204h0.877v11.849h-0.877V0.204z"/>
	<path fill="#FFFFFF" d="M185.966,0.204h0.98l4.641,10.901l4.655-10.901h0.93l-5.213,11.935h-0.78L185.966,0.204z"/>
	<path fill="#FFFFFF" d="M199.675,0.204h8.433v0.812h-7.553v4.656h6.79v0.812h-6.79v4.758h7.635v0.811h-8.515V0.204z"/>
	<path fill="#FFFFFF" d="M211.019,0.204h4.974c1.458,0,2.627,0.457,3.338,1.167c0.556,0.56,0.896,1.354,0.896,2.203v0.034
		c0,1.98-1.474,3.113-3.472,3.386l3.909,5.06h-1.114l-3.776-4.908h-3.88v4.908h-0.875V0.204z M215.89,6.349
		c1.984,0,3.456-0.999,3.456-2.707V3.607c0-1.593-1.254-2.592-3.402-2.592h-4.05v5.333H215.89z"/>
	<path fill="#FFFFFF" d="M222.491,10.328l0.578-0.66c1.3,1.201,2.504,1.76,4.248,1.76c1.778,0,2.996-1,2.996-2.354V9.04
		c0-1.253-0.663-1.981-3.353-2.522c-2.846-0.574-3.994-1.538-3.994-3.334V3.148c0-1.761,1.607-3.116,3.81-3.116
		c1.726,0,2.86,0.476,4.062,1.44l-0.559,0.694c-1.117-0.964-2.238-1.338-3.537-1.338c-1.745,0-2.898,0.999-2.898,2.234v0.034
		c0,1.253,0.645,2.016,3.453,2.591c2.742,0.56,3.895,1.542,3.895,3.269v0.034c0,1.913-1.643,3.232-3.929,3.232
		C225.368,12.224,223.911,11.598,222.491,10.328z"/>
	<path fill="#FFFFFF" d="M234.204,0.204h0.881v11.849h-0.881V0.204z"/>
	<path fill="#FFFFFF" d="M242.007,1.016h-4.131V0.204h9.141v0.812h-4.127v11.037h-0.883V1.016z"/>
	<path fill="#FFFFFF" d="M253.553,7.364l-5.083-7.16h1.102l4.438,6.366l4.449-6.366h1.054l-5.083,7.144v4.705h-0.876V7.364z"/>
</g>
</svg>
